HIERARCHY
ROOT Hips
{
	OFFSET 0.00000 0.00000 0.00000
	CHANNELS 6 Xposition Yposition Zposition Zrotation Yrotation Xrotation 
	JOINT LHipJoint
	{
		OFFSET 0 0 0
		CHANNELS 3 Zrotation Yrotation Xrotation
		JOINT LeftUpLeg
		{
			OFFSET 1.37959 -1.78713 0.86582
			CHANNELS 3 Zrotation Yrotation Xrotation
			JOINT LeftLeg
			{
				OFFSET 2.54611 -6.99539 0.00000
				CHANNELS 3 Zrotation Yrotation Xrotation
				JOINT LeftFoot
				{
					OFFSET 2.59951 -7.14211 0.00000
					CHANNELS 3 Zrotation Yrotation Xrotation
					JOINT LeftToeBase
					{
						OFFSET 0.18493 -0.50810 1.96120
						CHANNELS 3 Zrotation Yrotation Xrotation
						End Site
						{
							OFFSET 0.00000 -0.00000 1.02054
						}
					}
				}
			}
		}
	}
	JOINT RHipJoint
	{
		OFFSET 0 0 0
		CHANNELS 3 Zrotation Yrotation Xrotation
		JOINT RightUpLeg
		{
			OFFSET -1.33564 -1.78713 0.86582
			CHANNELS 3 Zrotation Yrotation Xrotation
			JOINT RightLeg
			{
				OFFSET -2.52705 -6.94302 0.00000
				CHANNELS 3 Zrotation Yrotation Xrotation
				JOINT RightFoot
				{
					OFFSET -2.55964 -7.03257 0.00000
					CHANNELS 3 Zrotation Yrotation Xrotation
					JOINT RightToeBase
					{
						OFFSET -0.25804 -0.70896 2.12109
						CHANNELS 3 Zrotation Yrotation Xrotation
						End Site
						{
							OFFSET -0.00000 -0.00000 1.11821
						}
					}
				}
			}
		}
	}
	JOINT LowerBack
	{
		OFFSET 0 0 0
		CHANNELS 3 Zrotation Yrotation Xrotation
		JOINT Spine
		{
			OFFSET -0.02031 2.24248 -0.18900
			CHANNELS 3 Zrotation Yrotation Xrotation
			JOINT Spine1
			{
				OFFSET 0.08342 2.24689 -0.03799
				CHANNELS 3 Zrotation Yrotation Xrotation
				JOINT Neck
				{
					OFFSET 0 0 0
					CHANNELS 3 Zrotation Yrotation Xrotation
					JOINT Neck1
					{
						OFFSET -0.11607 1.55844 0.24628
						CHANNELS 3 Zrotation Yrotation Xrotation
						JOINT Head
						{
							OFFSET 0.06877 1.60174 -0.17013
							CHANNELS 3 Zrotation Yrotation Xrotation
							End Site
							{
								OFFSET 0.03358 1.61266 -0.08543
							}
						}
					}
				}
				JOINT LeftShoulder
				{
					OFFSET 0 0 0
					CHANNELS 3 Zrotation Yrotation Xrotation
					JOINT LeftArm
					{
						OFFSET 3.47537 0.55866 -0.72348
						CHANNELS 3 Zrotation Yrotation Xrotation
						JOINT LeftForeArm
						{
							OFFSET 5.38154 -0.00000 0.00000
							CHANNELS 3 Zrotation Yrotation Xrotation
							JOINT LeftHand
							{
								OFFSET 3.33312 -0.00000 0.00000
								CHANNELS 3 Zrotation Yrotation Xrotation
								JOINT LeftFingerBase
								{
									OFFSET 0 0 0
									CHANNELS 3 Zrotation Yrotation Xrotation
									JOINT LeftHandIndex1
									{
										OFFSET 0.71079 -0.00000 0.00000
										CHANNELS 3 Zrotation Yrotation Xrotation
										End Site
										{
											OFFSET 0.57306 -0.00000 0.00000
										}
									}
								}
								JOINT LThumb
								{
									OFFSET 0 0 0
									CHANNELS 3 Zrotation Yrotation Xrotation
									End Site
									{
										OFFSET 0.58181 -0.00000 0.58181
									}
								}
							}
						}
					}
				}
				JOINT RightShoulder
				{
					OFFSET 0 0 0
					CHANNELS 3 Zrotation Yrotation Xrotation
					JOINT RightArm
					{
						OFFSET -3.27844 0.90739 -0.35708
						CHANNELS 3 Zrotation Yrotation Xrotation
						JOINT RightForeArm
						{
							OFFSET -5.16954 -0.00000 0.00000
							CHANNELS 3 Zrotation Yrotation Xrotation
							JOINT RightHand
							{
								OFFSET -3.38287 -0.00000 0.00000
								CHANNELS 3 Zrotation Yrotation Xrotation
								JOINT RightFingerBase
								{
									OFFSET 0 0 0
									CHANNELS 3 Zrotation Yrotation Xrotation
									JOINT RightHandIndex1
									{
										OFFSET -0.81797 -0.00000 0.00000
										CHANNELS 3 Zrotation Yrotation Xrotation
										End Site
										{
											OFFSET -0.65947 -0.00000 0.00000
										}
									}
								}
								JOINT RThumb
								{
									OFFSET 0 0 0
									CHANNELS 3 Zrotation Yrotation Xrotation
									End Site
									{
										OFFSET -0.66953 -0.00000 0.66953
									}
								}
							}
						}
					}
				}
			}
		}
	}
}
MOTION
Frames: 8
Frame Time: 0.028169
0.00 0.00 0.00 0 0 0 0 0 0 -21 0 0 0 0 0 0 0 0 0 0 0 0 0 0 21 0 0 0 0 0 0 0 0 0 0 0 0 0 0 0 0 0 0 0 0 0 0 -16 0 0 21 0 0 11 0 0 0 -8 0 0 0 0 0 0 0 0 0 0 0 0 0 0 0 0 0 0 0 0 8 0 0 0 0 0 0 0 0 0 0 0 0 0 0 0 0 0
0.00 0.00 0.00 -5.5041 17.4210 1.6814 0.0000 0.0000 0.0000 -14.9424 8.9744 -20.1562 5.9267 14.3569 44.6869 0.4143 -13.5363 -13.9543 1.1232 -6.7320 -18.9236 0.0000 0.0000 0.0000 22.9971 4.0848 -13.4191 -2.4733 -9.7891 28.2965 -0.9337 -2.5388 -19.3365 -0.0396 1.2852 -3.5338 4.6156 -0.8035 5.2838 2.6734 -0.7218 0.5464 0.2191 -0.3889 -2.4243 -11.7140 -6.3371 -12.6578 5.5585 -7.2158 13.0691 2.9703 -3.6295 6.6998 -0.0000 -0.0000 0.0000 -89.4159 1.9807 16.5177 17.4730 -27.4772 -4.3033 -0.0000 -0.0000 9.2489 -1.6011 34.7484 -0.9127 -7.1250 0.0000 -0.0000 -39.7922 60.0657 -16.1275 -0.0000 -0.0000 0.0000 87.1803 1.6983 19.3114 -17.0901 26.9764 -4.1281 0.0000 -0.0000 -10.0946 -10.0260 19.1475 -3.3188 7.1250 -0.0000 -0.0000 11.7986 -10.8713 9.5721
0.00 0.00 0.00 -5.2451 11.2683 -2.9421 0.0000 0.0000 0.0000 -4.7663 2.4091 -7.6000 2.9366 10.5917 30.9149 1.2667 -5.1544 -20.1983 2.3170 -9.4973 -27.3637 0.0000 0.0000 0.0000 15.7464 6.8040 -6.8555 -2.2037 -9.2781 26.6691 -0.7431 -3.3315 -17.8249 -0.0001 0.0703 -0.1931 1.6904 -1.4138 5.6573 3.1213 -1.7367 2.0172 2.3740 -0.8688 -1.0471 -11.8031 -6.0281 -14.6061 6.4712 -6.7555 14.6881 3.2959 -3.3227 7.5536 0.0000 -0.0000 0.0000 -87.3739 4.3438 24.8900 64.7923 -57.4573 -38.3559 -0.0000 0.0000 -19.0954 -26.7050 34.4128 -15.8706 -7.1250 0.0000 -0.0000 -60.9954 54.3183 -19.3070 0.0000 -0.0000 0.0000 87.0313 -10.0316 20.3034 -60.1759 56.3566 -34.4875 0.0000 -0.0000 -38.4738 -5.0111 15.3502 -1.3297 7.1250 -0.0000 -0.0000 15.1719 -14.9267 11.1565
0.00 0.00 0.00 -4.8380 12.2145 -2.9544 0.0000 0.0000 0.0000 -5.8338 0.7042 -7.4002 2.9554 10.6224 31.0169 1.2668 -6.9335 -20.1142 1.8347 -8.5130 -24.2833 0.0000 0.0000 0.0000 14.7383 7.7086 -6.2860 -2.1971 -9.2651 26.6283 -0.7387 -4.9846 -18.7993 -0.1022 -2.0614 5.6754 0.9788 -1.8094 5.6245 2.9454 -2.3089 2.0994 2.6247 -1.1574 -0.9071 -11.0229 -6.1287 -14.2901 5.6540 -6.9342 14.0959 2.8847 -3.4363 7.2628 0.0000 -0.0000 0.0000 -86.6624 4.8475 28.9118 84.2596 -59.8751 -55.0308 -0.0000 0.0000 -24.8474 -27.0621 32.7512 -15.4502 -7.1250 0.0000 -0.0000 -59.4813 53.2105 -16.6129 0.0000 -0.0000 0.0000 87.0593 -12.7336 24.2913 -83.0123 59.8147 -53.9522 0.0000 -0.0000 -44.5396 0.4424 15.8570 0.1209 7.1250 -0.0000 -0.0000 18.6858 -14.6570 14.1354
0.00 0.00 0.00 -2.8680 12.6156 -1.9009 0.0000 0.0000 0.0000 -8.7777 0.5266 -8.5425 3.0306 10.7445 31.4229 1.2753 -7.8522 -20.1916 1.6702 -8.1424 -23.1474 0.0000 0.0000 0.0000 11.7381 8.5251 -6.9989 -2.2580 -9.3839 27.0039 -0.7089 -5.5914 -18.9069 -0.1294 -2.3191 6.3885 -1.1995 -1.8211 5.1955 2.5175 -2.4448 1.6453 3.4086 -1.2265 -1.0569 -11.2686 -6.6403 -11.4736 5.0034 -7.7480 12.1815 2.6985 -3.9171 6.2212 0.0000 0.0000 0.0000 -86.0074 5.4256 32.4520 104.4772 -59.1931 -72.5036 -0.0000 0.0000 -31.0887 -29.8899 31.9766 -16.9299 -7.1250 0.0000 -0.0000 -60.7492 52.1787 -15.3725 0.0000 0.0000 0.0000 86.3615 -15.0957 28.2677 -105.4106 59.0834 -73.3049 0.0000 -0.0000 -49.2771 5.2419 17.3124 1.5639 7.1250 -0.0000 -0.0000 21.5629 -13.3854 17.2830
0.00 0.00 0.00 -3.0640 13.3982 -2.9920 0.0000 0.0000 0.0000 -9.2418 0.7645 -7.6505 3.0587 10.7895 31.5732 1.2999 -8.8844 -20.4351 1.4857 -7.7009 -21.8091 0.0000 0.0000 0.0000 11.7782 7.7944 -5.0805 -2.0791 -9.0289 25.8858 -0.5006 -7.7342 -18.3719 -0.0176 -0.8570 2.3555 -0.6304 -2.0350 5.7533 2.4249 -2.6999 1.8673 3.0256 -1.3532 -1.1533 -13.0198 -6.6631 -12.1190 6.6648 -7.7281 14.6774 3.4908 -3.8871 7.2739 -0.0000 -0.0000 0.0000 -84.4281 5.2650 36.8734 120.3597 -56.2133 -85.9580 -0.0000 0.0000 -33.3213 -33.1834 29.3826 -17.7894 -7.1250 0.0000 -0.0000 -60.3754 49.9131 -10.8827 -0.0000 -0.0000 0.0000 85.7234 -16.8116 32.1076 -123.4404 55.3212 -88.5053 0.0000 -0.0000 -51.9881 14.1412 17.3711 4.3018 7.1250 -0.0000 -0.0000 26.8310 -13.1995 22.6996
0.00 0.00 0.00 -2.9775 12.5371 -2.9906 0.0000 0.0000 0.0000 -11.0001 0.4503 -7.7794 3.1881 10.9935 32.2580 1.4105 -8.4303 -21.2572 1.1033 -6.6741 -18.7533 0.0000 0.0000 0.0000 10.7581 8.5685 -4.8296 -1.9576 -8.7772 25.1008 -0.2691 -9.8299 -17.7770 -0.2706 -3.3463 9.2444 0.0423 -2.0912 5.3625 1.9090 -2.7514 1.9402 2.1014 -1.3784 -0.9160 -12.8204 -6.8322 -11.4575 6.4869 -8.0951 15.6796 3.3734 -4.0926 7.5083 0.0000 -0.0000 0.0000 -80.5539 2.0659 43.1965 138.5361 -48.9137 -100.4644 -0.0000 0.0000 -36.6843 -39.0814 23.6595 -18.0514 -7.1250 0.0000 -0.0000 -58.2225 44.9072 0.2122 0.0000 -0.0000 0.0000 82.8233 -14.3544 41.8440 -140.9976 47.4676 -102.2994 0.0000 -0.0000 -53.6599 32.4651 20.9500 12.8156 7.1250 -0.0000 -0.0000 35.1179 -7.3814 38.8342
0.00 0.00 0.00 -3.2288 10.8999 -4.3803 0.0000 0.0000 0.0000 -15.2760 2.3473 -7.3515 3.2448 11.0812 32.5541 1.3720 -6.8805 -20.9504 0.6620 -5.2037 -14.4903 0.0000 0.0000 0.0000 14.2843 2.9725 -17.7922 -4.1481 -12.3549 36.9993 -0.6062 -2.0091 -15.5711 -0.1359 2.3757 -6.5450 -2.6365 -2.5681 6.2213 2.4037 -3.5343 1.5391 4.2180 -1.7618 -1.5820 -15.3224 -7.6530 -6.9707 7.7864 -9.7571 16.6567 4.1404 -5.0495 7.4126 -0.0000 0.0000 0.0000 -75.6406 -18.3472 55.2702 117.0021 -57.0573 -83.1534 -0.0000 0.0000 -14.5185 -39.9852 21.5316 -17.1084 -7.1250 0.0000 -0.0000 -56.6747 43.1113 4.2276 -0.0000 0.0000 0.0000 70.7721 6.3007 43.6791 -136.1057 50.2152 -98.6143 0.0000 -0.0000 -21.7252 -0.5902 12.6172 -0.1289 7.1250 -0.0000 -0.0000 18.3092 -17.7031 12.5331
